<?xml version="1.0" encoding="UTF-8"?>
<svg version="1.1" xmlns="http://www.w3.org/2000/svg" width="500" height="500">
<path d="M0 0 C0 0.66 0 1.32 0 2 C0.66 2 1.32 2 2 2 C5 5.46153846 5 5.46153846 5 8 C5.66 8 6.32 8 7 8 C7 8.66 7 9.32 7 10 C7.66 10 8.32 10 9 10 C13 14.47058824 13 14.47058824 13 17 C13.66 17 14.32 17 15 17 C18 20.46153846 18 20.46153846 18 23 C18.66 23 19.32 23 20 23 C20 23.66 20 24.32 20 25 C20.66 25 21.32 25 22 25 C23.41015625 26.3984375 23.41015625 26.3984375 25.0625 28.375 C27.86551777 31.67542175 30.7147866 34.91842096 33.625 38.125 C43 48.54166667 43 48.54166667 43 51 C43.66 51 44.32 51 45 51 C48.94196429 54.94196429 48.94196429 54.94196429 50 57 C49.51746344 60.66448054 48.38155027 63.64482225 46.77734375 66.95703125 C46.32560791 67.89587158 45.87387207 68.83471191 45.40844727 69.80200195 C44.92303467 70.79546631 44.43762207 71.78893066 43.9375 72.8125 C43.43726318 73.84785889 42.93702637 74.88321777 42.42163086 75.94995117 C39.39002731 82.20703707 36.29023586 88.42671884 33.14160156 94.62548828 C29.25456253 102.35813091 25.70293929 110.25177197 22.12329102 118.13012695 C21.63272217 119.20480225 21.14215332 120.27947754 20.63671875 121.38671875 C20.20061279 122.34795654 19.76450684 123.30919434 19.31518555 124.29956055 C18.88117432 125.19070557 18.44716309 126.08185059 18 127 C17.68482422 127.89138672 17.36964844 128.78277344 17.04492188 129.70117188 C13.54323101 133.63764766 8.68177518 133.63036667 3.64453125 134.39453125 C2.49129364 134.58781509 1.33805603 134.78109894 0.14987183 134.98023987 C-2.33332445 135.39429262 -4.81815749 135.79862196 -7.30435181 136.1942749 C-13.821896 137.23191477 -20.32784485 138.33852034 -26.8359375 139.43359375 C-28.78452415 139.75816559 -28.78452415 139.75816559 -30.7724762 140.08929443 C-41.99850911 141.96802852 -53.16208799 144.09349637 -64.3125 146.375 C-65.08306732 146.53199371 -65.85363464 146.68898743 -66.64755249 146.85073853 C-70.27698724 147.59067281 -73.90555604 148.33477729 -77.53369141 149.08105469 C-78.24656311 149.22764526 -78.95943481 149.37423584 -79.69390869 149.52526855 C-81.34210917 149.86456674 -82.99016438 150.2045709 -84.63812256 150.54504395 C-87.37645959 151.10942617 -90.11584979 151.66844013 -92.85546875 152.2265625 C-93.70764481 152.40335541 -94.55982086 152.58014832 -95.43782043 152.76229858 C-96.6349189 153.00491928 -96.6349189 153.00491928 -97.85620117 153.25244141 C-98.91275154 153.46920029 -98.91275154 153.46920029 -99.99064636 153.69033813 C-102 154 -102 154 -106 154 C-104.79638045 146.35447299 -94.93178137 139.45579821 -89 135 C-88.34 135 -87.68 135 -87 135 C-86.938125 134.401875 -86.87625 133.80375 -86.8125 133.1875 C-85.67020358 130.11208657 -83.82171939 129.54522728 -81 128 C-80.443125 127.443125 -79.88625 126.88625 -79.3125 126.3125 C-78.879375 125.879375 -78.44625 125.44625 -78 125 C-77.34 125 -76.68 125 -76 125 C-76 124.34 -76 123.68 -76 123 C-72.53846154 120 -72.53846154 120 -70 120 C-70 119.34 -70 118.68 -70 118 C-69.34 118 -68.68 118 -68 118 C-68 117.34 -68 116.68 -68 116 C-66.56640625 114.5546875 -66.56640625 114.5546875 -64.5625 112.875 C-60.58378677 109.50621429 -56.7229439 106.0296018 -52.8828125 102.50390625 C-51 101 -51 101 -49 101 C-49 100.34 -49 99.68 -49 99 C-43.52380952 94 -43.52380952 94 -41 94 C-40.77957031 93.34902344 -40.55914062 92.69804687 -40.33203125 92.02734375 C-39.89246094 91.35832031 -39.45289063 90.68929687 -39 90 C-36.57421875 89.56640625 -36.57421875 89.56640625 -33.6875 89.5625 C-29.77160716 89.32096855 -28.21742498 89.13642351 -24.8125 87 C-22.36088872 82.94216065 -22.39305257 79.63014179 -23 75 C-23.33 74.01 -23.66 73.02 -24 72 C-26.90541905 71.03152698 -28.96637454 70.80417188 -32 70.75 C-32.86625 70.72421875 -33.7325 70.6984375 -34.625 70.671875 C-37.01902338 70.82598398 -37.01902338 70.82598398 -38.765625 72.18359375 C-40.38705814 74.5695634 -40.48101783 76.45258663 -40.75 79.3125 C-41.56531114 84.61202242 -43.10693945 86.88763455 -47.34375 90.07421875 C-49 91 -49 91 -51 91 C-51 91.66 -51 92.32 -51 93 C-52.3984375 94.41015625 -52.3984375 94.41015625 -54.375 96.0625 C-58.65834459 99.68804524 -62.78372133 103.46199548 -66.8984375 107.27734375 C-69 109 -69 109 -71 109 C-71 109.66 -71 110.32 -71 111 C-71.66 111 -72.32 111 -73 111 C-73 111.66 -73 112.32 -73 113 C-74.69274284 114.56432787 -76.45569852 116.05328572 -78.25 117.5 C-79.22453125 118.2940625 -80.1990625 119.088125 -81.203125 119.90625 C-83.44894762 121.58748034 -85.4465803 122.88135899 -88 124 C-88 124.66 -88 125.32 -88 126 C-88.66 126 -89.32 126 -90 126 C-90 126.66 -90 127.32 -90 128 C-91.3984375 129.41015625 -91.3984375 129.41015625 -93.375 131.0625 C-97.56491231 134.61870671 -101.64034991 138.28388559 -105.703125 141.984375 C-111.41860465 147 -111.41860465 147 -114 147 C-112.50394252 139.38370738 -110.20551246 132.07906213 -107.85400391 124.69335938 C-99.62920724 98.75397777 -91.87999184 72.72988552 -85.01953125 46.39575195 C-84.83381058 45.68523178 -84.6480899 44.97471161 -84.45674133 44.24266052 C-83.95009498 42.30269961 -83.44602928 40.36206524 -82.94213867 38.42138672 C-80.42320049 29.27383561 -80.42320049 29.27383561 -76.8125 26.9375 C-72.25028006 24.93376638 -67.49138184 23.44590862 -62.75292969 21.91894531 C-58.92904081 20.67932268 -55.24033766 19.30640048 -51.5625 17.6875 C-44.39191558 14.59334371 -36.96183494 12.26088557 -29.53930664 9.85424805 C-24.22789366 8.12261006 -19.10150159 6.27370296 -14 4 C-12.09035442 3.25263871 -10.17410376 2.52180944 -8.25 1.8125 C-7.32703125 1.46832031 -6.4040625 1.12414062 -5.453125 0.76953125 C-3 0 -3 0 0 0 Z " fill="#F8F9F7" transform="translate(260,184)"/>
<path d="M0 0 C2.45703125 2.3125 2.45703125 2.3125 4.8125 5 C5.60269531 5.886875 6.39289063 6.77375 7.20703125 7.6875 C9 10 9 10 9 12 C9.66 12 10.32 12 11 12 C12.69140625 13.64453125 12.69140625 13.64453125 14.5625 15.8125 C15.49255859 16.87404297 15.49255859 16.87404297 16.44140625 17.95703125 C18 20 18 20 19 23 C19.66 23 20.32 23 21 23 C22.53851766 24.71951974 24.00731759 26.50187497 25.4375 28.3125 C28.45235569 32.16467002 28.45235569 32.16467002 31.78515625 35.73046875 C33 37 33 37 33 39 C33.66 39 34.32 39 35 39 C40 44.47619048 40 44.47619048 40 47 C40.66 47 41.32 47 42 47 C42 47.66 42 48.32 42 49 C42.66 49 43.32 49 44 49 C45.5078125 50.57421875 45.5078125 50.57421875 47.125 52.6875 C47.66382813 53.37199219 48.20265625 54.05648437 48.7578125 54.76171875 C50.21051633 57.37932659 50.23751225 59.05175015 50 62 C49.34 62 48.68 62 48 62 C47.34 63.65 46.68 65.3 46 67 C45.34 67 44.68 67 44 67 C43.34 68.65 42.68 70.3 42 72 C41.34 72 40.68 72 40 72 C39.7421875 72.56203125 39.484375 73.1240625 39.21875 73.703125 C37.85830223 76.26704579 36.27211038 78.45226365 34.5 80.75 C33.8915625 81.54921875 33.283125 82.3484375 32.65625 83.171875 C32.1096875 83.77515625 31.563125 84.3784375 31 85 C30.34 85 29.68 85 29 85 C29 85.66 29 86.32 29 87 C28.34 87 27.68 87 27 87 C26.63261719 87.84304687 26.63261719 87.84304687 26.2578125 88.703125 C24.77073461 91.41865854 22.95937218 93.46391438 20.875 95.75 C20.15054688 96.54921875 19.42609375 97.3484375 18.6796875 98.171875 C18.12539063 98.77515625 17.57109375 99.3784375 17 100 C15.0625 99.6875 15.0625 99.6875 13 99 C12.67 98.01 12.34 97.02 12 96 C11.34 96 10.68 96 10 96 C10 95.34 10 94.68 10 94 C9.34 94 8.68 94 8 94 C7.34 92.35 6.68 90.7 6 89 C5.34 89 4.68 89 4 89 C4 88.34 4 87.68 4 87 C3.34 87 2.68 87 2 87 C0.484375 85.49609375 0.484375 85.49609375 -1.25 83.4375 C-2.17232422 82.34888672 -2.17232422 82.34888672 -3.11328125 81.23828125 C-3.73589844 80.49964844 -4.35851562 79.76101562 -5 79 C-5.59167969 78.33355469 -6.18335938 77.66710937 -6.79296875 76.98046875 C-7.33566406 76.36816406 -7.87835938 75.75585938 -8.4375 75.125 C-8.93121094 74.57070312 -9.42492187 74.01640625 -9.93359375 73.4453125 C-11 72 -11 72 -11 70 C-11.66 70 -12.32 70 -13 70 C-14.7265625 68.3203125 -14.7265625 68.3203125 -16.625 66.125 C-17.25664062 65.40570313 -17.88828125 64.68640625 -18.5390625 63.9453125 C-20 62 -20 62 -20 60 C-20.66 60 -21.32 60 -22 60 C-23.7265625 58.3203125 -23.7265625 58.3203125 -25.625 56.125 C-26.25664062 55.40570313 -26.88828125 54.68640625 -27.5390625 53.9453125 C-29 52 -29 52 -29 50 C-29.66 50 -30.32 50 -31 50 C-32.47516321 48.34191655 -33.880713 46.62153953 -35.25 44.875 C-37.87541034 41.56672849 -40.43397405 38.46232664 -43.5625 35.625 C-46 33 -46 33 -46.42578125 30.57421875 C-45.84475268 27.06139462 -44.46746139 26.24537032 -41.625 24.1875 C-40.81289063 23.58292969 -40.00078125 22.97835937 -39.1640625 22.35546875 C-37 21 -37 21 -35 21 C-35 20.34 -35 19.68 -35 19 C-33.30189246 17.62101957 -31.53964541 16.32040522 -29.75 15.0625 C-28.77546875 14.37285156 -27.8009375 13.68320313 -26.796875 12.97265625 C-25.87390625 12.32167969 -24.9509375 11.67070312 -24 11 C-23.26265625 10.42121094 -22.5253125 9.84242188 -21.765625 9.24609375 C-20 8 -20 8 -18 8 C-18 7.34 -18 6.68 -18 6 C-12.54845979 1.02191862 -7.20692332 -3.64585533 0 0 Z " fill="#F5F5F3" transform="translate(307,141)"/>
<path d="M0 0 C0.66 0 1.32 0 2 0 C1.25 5.75 1.25 5.75 -1 8 C-2.80004883 8.50244141 -2.80004883 8.50244141 -4.95703125 8.8515625 C-5.74013672 8.98046875 -6.52324219 9.109375 -7.33007812 9.2421875 C-8.14927734 9.36851562 -8.96847656 9.49484375 -9.8125 9.625 C-10.62009766 9.7590625 -11.42769531 9.893125 -12.25976562 10.03125 C-16.20780814 10.66500621 -19.98713749 11.17907297 -24 11 C-24 10.34 -24 9.68 -24 9 C-20.04 9 -16.08 9 -12 9 C-12 8.34 -12 7.68 -12 7 C-10.7625 6.855625 -9.525 6.71125 -8.25 6.5625 C-5.43495501 6.21311498 -2.7298503 5.79620634 0 5 C-0.185625 4.360625 -0.37125 3.72125 -0.5625 3.0625 C-0.706875 2.381875 -0.85125 1.70125 -1 1 C-0.67 0.67 -0.34 0.34 0 0 Z " fill="#A8AB9B" transform="translate(276,308)"/>
<path d="M0 0 C0.66 0.33 1.32 0.66 2 1 C0.02 3.31 -1.96 5.62 -4 8 C-3.01 9.485 -3.01 9.485 -2 11 C-4.31 11.33 -6.62 11.66 -9 12 C-8.45015228 8.12488273 -6.72444669 6.40423494 -3.9375 3.75 C-3.20402344 3.04359375 -2.47054687 2.3371875 -1.71484375 1.609375 C-1.14894531 1.07828125 -0.58304688 0.5471875 0 0 Z " fill="#91927E" transform="translate(163,326)"/>
<path d="M0 0 C1.30102931 4.32058242 0.72449924 7.58055464 0 12 C-0.33 12.33 -0.66 12.66 -1 13 C-1.12375 14.134375 -1.2475 15.26875 -1.375 16.4375 C-1.58125 17.613125 -1.7875 18.78875 -2 20 C-2.99 20.66 -3.98 21.32 -5 22 C-3.60695059 14.59225491 -1.88100377 7.29829463 0 0 Z " fill="#7B7E65" transform="translate(176,227)"/>
<path d="M0 0 C0.33 0 0.66 0 1 0 C1.11895732 6.18578064 0.35801851 10.34075558 -2 16 C-2.66 16 -3.32 16 -4 16 C-2.84941444 10.60204011 -1.57578241 5.29012667 0 0 Z " fill="#90907E" transform="translate(170,250)"/>
<path d="M0 0 C0.66 0.33 1.32 0.66 2 1 C-1.08632611 4.2626876 -3.93483504 7.02235218 -8 9 C-8.66 8.67 -9.32 8.34 -10 8 C-6.7 5.36 -3.4 2.72 0 0 Z " fill="#9C9C8B" transform="translate(287,149)"/>
<path d="M0 0 C1.66666667 1.66666667 3.33333333 3.33333333 5 5 C0.25 9 0.25 9 -2 9 C-1.34 6.03 -0.68 3.06 0 0 Z " fill="#9FA082" transform="translate(148,322)"/>
<path d="M0 0 C0.33 0.66 0.66 1.32 1 2 C-0.21484375 4.8203125 -0.21484375 4.8203125 -1.9375 8.125 C-2.50339844 9.22070312 -3.06929688 10.31640625 -3.65234375 11.4453125 C-4.09707031 12.28835938 -4.54179687 13.13140625 -5 14 C-5.33 14 -5.66 14 -6 14 C-5.67 11.36 -5.34 8.72 -5 6 C-4.01 5.67 -3.02 5.34 -2 5 C-2 3.68 -2 2.36 -2 1 C-1.34 0.67 -0.68 0.34 0 0 Z " fill="#9A9B8E" transform="translate(297,267)"/>
<path d="M0 0 C0.66 0.66 1.32 1.32 2 2 C1.42105263 10.97368421 1.42105263 10.97368421 -1 14 C-3.625 14.75 -3.625 14.75 -6 15 C-5.195625 14.195625 -4.39125 13.39125 -3.5625 12.5625 C-0.31186942 8.73336737 -0.11926137 4.8788744 0 0 Z " fill="#6C6C5A" transform="translate(238,259)"/>
<path d="M0 0 C-2.5654594 2.5654594 -4.47686668 2.54046087 -8 3 C-8 3.66 -8 4.32 -8 5 C-8.99 5 -9.98 5 -11 5 C-11.33 5.66 -11.66 6.32 -12 7 C-11.7421875 5.14453125 -11.7421875 5.14453125 -11 3 C-9.2578125 1.69921875 -9.2578125 1.69921875 -7.125 0.6875 C-6.42632812 0.34074219 -5.72765625 -0.00601563 -5.0078125 -0.36328125 C-3 -1 -3 -1 0 0 Z " fill="#94957E" transform="translate(191,210)"/>
<path d="M0 0 C0.33 0 0.66 0 1 0 C1.19294408 4.82360189 0.75747614 8.49646738 -1 13 C-1.66 13 -2.32 13 -3 13 C-2.343621 8.51474352 -1.29925791 4.33085971 0 0 Z " fill="#AFAF9D" transform="translate(159,287)"/>
<path d="M0 0 C1.51400391 0.01740234 1.51400391 0.01740234 3.05859375 0.03515625 C4.07050781 0.04417969 5.08242187 0.05320312 6.125 0.0625 C7.29869141 0.07990234 7.29869141 0.07990234 8.49609375 0.09765625 C8.49609375 0.42765625 8.49609375 0.75765625 8.49609375 1.09765625 C3.1158235 2.28854611 -1.95682009 3.38960815 -7.50390625 3.09765625 C-6.86453125 2.78828125 -6.22515625 2.47890625 -5.56640625 2.16015625 C-1.48563778 0.05794219 -1.48563778 0.05794219 0 0 Z " fill="#888A74" transform="translate(225.50390625,321.90234375)"/>
<path d="M0 0 C0.66 0.33 1.32 0.66 2 1 C0.92807816 2.3218362 -0.15802695 3.63217927 -1.25 4.9375 C-1.85328125 5.66839844 -2.4565625 6.39929688 -3.078125 7.15234375 C-5.10741134 9.10326334 -6.254407 9.61731779 -9 10 C-9 9.34 -9 8.68 -9 8 C-7.28515625 6.30859375 -7.28515625 6.30859375 -5.0625 4.4375 C-3.96615234 3.50744141 -3.96615234 3.50744141 -2.84765625 2.55859375 C-2.23792969 2.04425781 -1.62820312 1.52992188 -1 1 C-0.67 0.67 -0.34 0.34 0 0 Z " fill="#787865" transform="translate(201,292)"/>
<path d="M0 0 C0.66 0.33 1.32 0.66 2 1 C0.47793991 3.62901288 -0.84365964 5.84365964 -3 8 C-5.625 7.625 -5.625 7.625 -8 7 C-7.236875 6.401875 -6.47375 5.80375 -5.6875 5.1875 C-3.6516425 3.53040668 -1.8021721 1.89702326 0 0 Z " fill="#959786" transform="translate(182,309)"/>
<path d="M0 0 C0 0.66 0 1.32 0 2 C0.66 2 1.32 2 2 2 C1.67 2.66 1.34 3.32 1 4 C-2.63 4 -6.26 4 -10 4 C-9 2 -9 2 -6.125 0.875 C-3 0 -3 0 0 0 Z " fill="#909079" transform="translate(260,184)"/>
<path d="M0 0 C2.875 0.625 2.875 0.625 6 2 C7.375 5.125 7.375 5.125 8 8 C6.85073734 7.04578192 5.70569459 6.08647955 4.5625 5.125 C3.92441406 4.59132812 3.28632813 4.05765625 2.62890625 3.5078125 C1 2 1 2 0 0 Z " fill="#B0B29F" transform="translate(263,175)"/>
<path d="M0 0 C0.66 0 1.32 0 2 0 C0.54744301 3.82946843 -1.42895561 5.12050295 -5 7 C-5.33 6.34 -5.66 5.68 -6 5 C-2.25 2 -2.25 2 0 2 C0 1.34 0 0.68 0 0 Z " fill="#A6A89B" transform="translate(190,302)"/>
<path d="M0 0 C2.125 0.375 2.125 0.375 4 1 C3.34 1 2.68 1 2 1 C2 1.66 2 2.32 2 3 C1.34 3 0.68 3 0 3 C0 3.66 0 4.32 0 5 C-0.99 5.33 -1.98 5.66 -3 6 C-2.42655063 3.13275314 -2.1385485 2.1385485 0 0 Z " fill="#AEAD9B" transform="translate(187,292)"/>
<path d="M0 0 C1.32 0 2.64 0 4 0 C4 0.66 4 1.32 4 2 C3.34 2 2.68 2 2 2 C1.34 3.32 0.68 4.64 0 6 C-0.66 5.01 -1.32 4.02 -2 3 C-1.34 2.01 -0.68 1.02 0 0 Z " fill="#B4B4A4" transform="translate(332,226)"/>
<path d="" fill="#000000" transform="translate(0,0)"/>
<path d="" fill="#000000" transform="translate(0,0)"/>
<path d="" fill="#000000" transform="translate(0,0)"/>
<path d="" fill="#000000" transform="translate(0,0)"/>
<path d="" fill="#000000" transform="translate(0,0)"/>
<path d="" fill="#000000" transform="translate(0,0)"/>
<path d="" fill="#000000" transform="translate(0,0)"/>
<path d="" fill="#000000" transform="translate(0,0)"/>
<path d="" fill="#000000" transform="translate(0,0)"/>
<path d="" fill="#000000" transform="translate(0,0)"/>
<path d="" fill="#000000" transform="translate(0,0)"/>
<path d="" fill="#000000" transform="translate(0,0)"/>
<path d="" fill="#000000" transform="translate(0,0)"/>
<path d="" fill="#000000" transform="translate(0,0)"/>
<path d="" fill="#000000" transform="translate(0,0)"/>
<path d="" fill="#000000" transform="translate(0,0)"/>
<path d="" fill="#000000" transform="translate(0,0)"/>
<path d="" fill="#000000" transform="translate(0,0)"/>
<path d="" fill="#000000" transform="translate(0,0)"/>
<path d="" fill="#000000" transform="translate(0,0)"/>
<path d="" fill="#000000" transform="translate(0,0)"/>
<path d="" fill="#000000" transform="translate(0,0)"/>
<path d="" fill="#000000" transform="translate(0,0)"/>
<path d="" fill="#000000" transform="translate(0,0)"/>
<path d="" fill="#000000" transform="translate(0,0)"/>
<path d="" fill="#000000" transform="translate(0,0)"/>
<path d="" fill="#000000" transform="translate(0,0)"/>
<path d="" fill="#000000" transform="translate(0,0)"/>
<path d="" fill="#000000" transform="translate(0,0)"/>
<path d="" fill="#000000" transform="translate(0,0)"/>
<path d="" fill="#000000" transform="translate(0,0)"/>
<path d="" fill="#000000" transform="translate(0,0)"/>
<path d="" fill="#000000" transform="translate(0,0)"/>
<path d="" fill="#000000" transform="translate(0,0)"/>
<path d="" fill="#000000" transform="translate(0,0)"/>
<path d="" fill="#000000" transform="translate(0,0)"/>
<path d="" fill="#000000" transform="translate(0,0)"/>
<path d="" fill="#000000" transform="translate(0,0)"/>
<path d="" fill="#000000" transform="translate(0,0)"/>
<path d="" fill="#000000" transform="translate(0,0)"/>
<path d="" fill="#000000" transform="translate(0,0)"/>
<path d="" fill="#000000" transform="translate(0,0)"/>
<path d="" fill="#000000" transform="translate(0,0)"/>
<path d="" fill="#000000" transform="translate(0,0)"/>
<path d="" fill="#000000" transform="translate(0,0)"/>
<path d="" fill="#000000" transform="translate(0,0)"/>
<path d="" fill="#000000" transform="translate(0,0)"/>
<path d="" fill="#000000" transform="translate(0,0)"/>
<path d="" fill="#000000" transform="translate(0,0)"/>
<path d="" fill="#000000" transform="translate(0,0)"/>
<path d="" fill="#000000" transform="translate(0,0)"/>
<path d="" fill="#000000" transform="translate(0,0)"/>
<path d="" fill="#000000" transform="translate(0,0)"/>
<path d="" fill="#000000" transform="translate(0,0)"/>
<path d="" fill="#000000" transform="translate(0,0)"/>
<path d="" fill="#000000" transform="translate(0,0)"/>
<path d="" fill="#000000" transform="translate(0,0)"/>
<path d="" fill="#000000" transform="translate(0,0)"/>
<path d="" fill="#000000" transform="translate(0,0)"/>
<path d="" fill="#000000" transform="translate(0,0)"/>
<path d="" fill="#000000" transform="translate(0,0)"/>
<path d="" fill="#000000" transform="translate(0,0)"/>
<path d="" fill="#000000" transform="translate(0,0)"/>
<path d="" fill="#000000" transform="translate(0,0)"/>
<path d="" fill="#000000" transform="translate(0,0)"/>
<path d="" fill="#000000" transform="translate(0,0)"/>
<path d="" fill="#000000" transform="translate(0,0)"/>
<path d="" fill="#000000" transform="translate(0,0)"/>
<path d="" fill="#000000" transform="translate(0,0)"/>
<path d="" fill="#000000" transform="translate(0,0)"/>
<path d="" fill="#000000" transform="translate(0,0)"/>
<path d="" fill="#000000" transform="translate(0,0)"/>
<path d="" fill="#000000" transform="translate(0,0)"/>
<path d="" fill="#000000" transform="translate(0,0)"/>
<path d="" fill="#000000" transform="translate(0,0)"/>
<path d="" fill="#000000" transform="translate(0,0)"/>
<path d="" fill="#000000" transform="translate(0,0)"/>
<path d="" fill="#000000" transform="translate(0,0)"/>
</svg>
