<?xml version="1.0" encoding="UTF-8"?>
<svg version="1.1" xmlns="http://www.w3.org/2000/svg" width="1024" height="1024">
<path d="M0 0 C337.92 0 675.84 0 1024 0 C1024 337.92 1024 675.84 1024 1024 C686.08 1024 348.16 1024 0 1024 C0 686.08 0 348.16 0 0 Z " fill="#FCFCFC" transform="translate(0,0)"/>
<path d="M0 0 C7.28499595 5.0261593 13.63956085 11.26681597 19.87915039 17.50854492 C21.31833605 18.94331815 22.77287217 20.36124676 24.22851562 21.77929688 C33.54108647 31.05319961 38.8420017 39.52820334 39.375 52.75 C38.99378667 70.53248067 27.57584844 80.89082552 15.62255859 92.45703125 C11.70474861 96.18266458 7.59747874 99.67526153 3.4375 103.125 C1.75916251 104.92036381 1.75916251 104.92036381 2 107.375 C4.15017165 113.01920059 7.76941504 116.82404239 12 121 C25.03434016 134.12981318 35.5559822 147.21088432 35.49267578 166.47924805 C34.62207827 191.06416476 10.02495533 209.13635082 -6.01953125 225.1875 C-7.85038779 227.02157584 -9.68117163 228.85572425 -11.5118866 230.68994141 C-15.32671476 234.5107217 -19.14354528 238.32948699 -22.96166992 242.14697266 C-27.36356143 246.54826043 -31.75980742 250.95513305 -36.15352899 255.36457539 C-40.40727957 259.63299639 -44.666562 263.89585255 -48.92795372 268.15664673 C-50.73046201 269.96033326 -52.53135314 271.76563742 -54.33057594 273.57260132 C-56.84041544 276.09223959 -59.35651288 278.60546188 -61.87426758 281.1171875 C-62.61152573 281.86006516 -63.34878387 282.60294281 -64.10838318 283.36833191 C-70.03065609 289.25464135 -74.78497628 293.39826649 -83.25 294.375 C-88.96214202 293.8037858 -92.75103508 291.44995937 -96.6171875 287.23828125 C-99.81453232 282.78548182 -100.55751695 278.91466295 -100.56640625 273.4921875 C-98.90980742 266.20315264 -92.22981086 260.9719996 -87.13232422 255.93701172 C-85.75902157 254.56819189 -84.38571918 253.19937179 -83.01242661 251.83054185 C-81.54356621 250.3683999 -80.07224417 248.90877728 -78.60018539 247.4498558 C-75.52734166 244.4041583 -72.46223175 241.35075587 -69.39822388 238.2961731 C-62.89639603 231.81649616 -56.38613045 225.34532707 -49.875 218.875 C-42.83795382 211.88201895 -35.80238808 204.88758585 -28.77652752 197.88336384 C-25.73076543 194.84756039 -22.68019507 191.81669866 -19.62584281 188.7895391 C-18.18518323 187.36020625 -16.74682805 185.92860224 -15.30947876 184.49594116 C-13.55774751 182.7499505 -11.80241223 181.0075654 -10.04284668 179.26947021 C-9.27177582 178.49854034 -8.50070496 177.72761047 -7.70626831 176.93331909 C-6.69916715 175.93287976 -6.69916715 175.93287976 -5.6717205 174.91222954 C-3.15221015 172.03023933 -2.13272894 169.60331337 -1.3125 165.875 C-2.40804178 159.70012816 -6.65280535 156.30592381 -11 152 C-11.7115625 151.27554688 -12.423125 150.55109375 -13.15625 149.8046875 C-14.75524825 148.18602944 -16.36775601 146.58500863 -18 145 C-21.05595968 146.33706648 -22.81233372 147.68121215 -24.89831543 150.26721191 C-30.42511908 156.7855952 -36.57611372 162.69853597 -42.62695312 168.72460938 C-44.00599615 170.10173063 -45.38480975 171.47908165 -46.76341248 172.85664368 C-49.72043452 175.81051697 -52.67899998 178.76283238 -55.63877869 181.71394348 C-60.32351523 186.38510181 -65.00438534 191.06012185 -69.68469238 195.73571777 C-80.46427984 206.50328696 -91.24888259 217.26582835 -102.03353119 228.02832794 C-111.92189535 237.8964875 -121.80918611 247.76571626 -131.6924262 257.63900805 C-136.34050985 262.28212388 -140.99101747 266.92279373 -145.64342499 271.56157684 C-148.54176315 274.45243047 -151.4380054 277.34537704 -154.33369637 280.23888206 C-155.67152062 281.57484199 -157.0102052 282.90994107 -158.34983635 284.24408913 C-167.25055862 293.09829562 -167.25055862 293.09829562 -175.6501236 302.42427826 C-177.45669204 304.53310035 -179.38488721 306.49785581 -181.35546875 308.453125 C-182.52203003 309.61473145 -182.52203003 309.61473145 -183.7121582 310.79980469 C-184.529021 311.60836914 -185.34588379 312.41693359 -186.1875 313.25 C-187.47950317 314.53632324 -187.47950317 314.53632324 -188.79760742 315.84863281 C-192.45013983 319.48494939 -196.10863635 323.11524371 -199.76660156 326.74609375 C-202.45065156 329.41197597 -205.13163241 332.0809181 -207.8125 334.75 C-208.62936279 335.55856445 -209.44622559 336.36712891 -210.2878418 337.20019531 C-214.55662264 341.450845 -218.65645459 345.77443194 -222.56210327 350.36233521 C-236.33029592 366.04335314 -262.76391417 373.03680715 -281.39526367 381.16870117 C-291.9420034 385.77200475 -302.45505058 390.43982776 -312.9375 395.1875 C-321.32861563 398.98202682 -329.73303245 402.63848564 -338.37670898 405.82299805 C-342.3819636 407.30546572 -346.13329244 409.03659772 -349.92651367 410.97631836 C-353.54011795 412.7603573 -357.25696407 414.26172804 -361 415.75 C-361.75539063 416.06582031 -362.51078125 416.38164063 -363.2890625 416.70703125 C-369.04810927 418.99283848 -374.33579711 420.35312068 -380.390625 418.1171875 C-384.65463448 415.26854251 -387.79355636 412.78062789 -390 408 C-390.91960078 403.01882912 -390.14460668 398.89376986 -388.21875 394.25390625 C-387.85587891 393.37847168 -387.49300781 392.50303711 -387.11914062 391.60107422 C-385.47039336 387.7691036 -383.74594808 383.97595383 -382 380.1875 C-378.19929053 371.84867776 -374.66093273 363.4172921 -371.1875 354.9375 C-365.40207289 340.83215016 -359.27246993 326.89555346 -353 313 C-352.41306017 311.69874209 -351.82614688 310.39747221 -351.23925781 309.09619141 C-346.28098637 298.10568688 -346.28098637 298.10568688 -343.94775391 292.96508789 C-341.4391969 287.43439561 -338.94002607 281.90230701 -336.546875 276.3203125 C-330.34763089 261.86681836 -330.34763089 261.86681836 -325 256 C-324.34515625 255.25234375 -323.6903125 254.5046875 -323.015625 253.734375 C-320.70540591 251.12923432 -318.35326686 248.56631571 -316 246 C-315.19242249 245.10686096 -314.38484497 244.21372192 -313.55279541 243.29351807 C-307.35042137 236.45876458 -300.97223304 229.8454541 -294.42073822 223.34557343 C-292.74356842 221.68148417 -291.06982134 220.01401308 -289.39678955 218.34576416 C-285.85072191 214.81096178 -282.30067238 211.28017614 -278.75 207.75 C-274.61386515 203.63763764 -270.47947301 199.52355199 -266.34928131 195.40522003 C-264.71464411 193.77697681 -263.07698694 192.15181596 -261.43914795 190.52679443 C-257.25243391 186.35978681 -253.10117515 182.2075452 -249.27050781 177.70410156 C-247.13998843 175.21281694 -244.96917047 173.02167898 -242.47094727 170.90014648 C-235.7679529 165.19695818 -229.67828078 158.82164574 -223.46484375 152.59765625 C-222.05829696 151.19178434 -220.65160185 149.7860608 -219.24476624 148.38047791 C-216.30730236 145.44448232 -213.37163918 142.50670131 -210.43725586 139.56762695 C-206.6929794 135.81765377 -202.94423066 132.07218869 -199.19411373 128.32805729 C-196.2916656 125.42923828 -193.39162265 122.52802245 -190.49228096 119.62609673 C-189.11164105 118.24479405 -187.73026988 116.86422185 -186.34812737 115.48442268 C-177.23508892 106.41103566 -177.23508892 106.41103566 -168.63127136 96.8603363 C-165.15049236 92.89078244 -161.36591866 89.20293453 -157.63671875 85.46875 C-156.76352493 84.59222778 -155.89033112 83.71570557 -154.99067688 82.81262207 C-153.15907508 80.9759882 -151.3261437 79.1406794 -149.49194336 77.30664062 C-147.61061894 75.4238422 -145.7314832 73.53917552 -143.85620117 71.65039062 C-141.14217789 68.91816828 -138.42163693 66.19260468 -135.69921875 63.46875 C-134.85654953 62.61889526 -134.01388031 61.76904053 -133.14567566 60.89343262 C-132.36759048 60.11842407 -131.58950531 59.34341553 -130.7878418 58.54492188 C-130.10280075 57.85845581 -129.4177597 57.17198975 -128.71195984 56.46472168 C-127 55 -127 55 -125 55 C-124.69255859 54.18982422 -124.69255859 54.18982422 -124.37890625 53.36328125 C-122.4504517 50.0581396 -119.75385576 47.72110195 -116.9375 45.1875 C-116.06013184 44.39182617 -116.06013184 44.39182617 -115.16503906 43.58007812 C-98.50853065 28.59745276 -98.50853065 28.59745276 -87 27 C-84.95731789 27.17609328 -82.91567026 27.36444969 -80.875 27.5625 C-75.03809605 27.62845372 -72.46252733 26.38459636 -68.1875 22.4375 C-66.4416593 20.64105522 -64.71132887 18.82935155 -63 17 C-61.62222768 15.75062223 -60.2281294 14.51881455 -58.8125 13.3125 C-56.8675675 11.63583406 -54.95047 9.95329452 -53.08203125 8.19140625 C-38.94835561 -4.92667593 -17.50690481 -8.57478026 0 0 Z " fill="#2F7ACA" transform="translate(823,444)"/>
<path d="M0 0 C16.48560921 15.36345118 29.43426043 33.81635094 36.69140625 55.2578125 C36.91787842 55.92449951 37.14435059 56.59118652 37.37768555 57.27807617 C41.17284859 69.25401909 42.82167893 80.99001962 42.70751953 93.48461914 C42.69143504 95.56658646 42.70748261 97.64660624 42.7265625 99.72851562 C42.74752251 112.52728263 40.84696203 125.00682422 36.62890625 137.1328125 C36.24762573 138.24499146 36.24762573 138.24499146 35.85864258 139.37963867 C28.81743866 159.20080685 17.36312962 175.48205554 2.31640625 190.1328125 C1.86652344 190.6278125 1.41664063 191.1228125 0.953125 191.6328125 C-16.31555438 210.14415119 -42.14557505 220.90106982 -66.68359375 225.1328125 C-68.18599609 225.40931641 -68.18599609 225.40931641 -69.71875 225.69140625 C-86.40152157 227.54870003 -104.36093681 227.33537424 -120.68359375 223.1328125 C-121.39418945 222.95008789 -122.10478516 222.76736328 -122.83691406 222.57910156 C-140.5221776 217.79441676 -157.74590406 209.0446752 -171.68359375 197.1328125 C-172.67359375 196.29234375 -173.66359375 195.451875 -174.68359375 194.5859375 C-193.06545286 178.56222924 -207.98211468 156.73757583 -214.68359375 133.1328125 C-214.8640625 132.51712402 -215.04453125 131.90143555 -215.23046875 131.26708984 C-218.52243384 119.53668382 -219.0821671 107.92336798 -219.12109375 95.8203125 C-219.1302179 94.74824051 -219.1302179 94.74824051 -219.13952637 93.6545105 C-219.32850858 59.70054403 -204.21763203 28.18690366 -180.68359375 4.1328125 C-173.07071115 -3.22637724 -164.90064928 -9.63103922 -155.68359375 -14.8671875 C-154.78181396 -15.3945752 -154.78181396 -15.3945752 -153.86181641 -15.93261719 C-140.2370835 -23.85028461 -125.39058022 -29.73037132 -109.68359375 -31.8671875 C-108.52730469 -32.03154297 -108.52730469 -32.03154297 -107.34765625 -32.19921875 C-68.054649 -36.73302728 -29.58549622 -26.73771714 0 0 Z " fill="#1DB574" transform="translate(851.68359375,195.8671875)"/>
<path d="M0 0 C1.21062794 -0.0055344 2.42125587 -0.01106879 3.66856951 -0.0167709 C7.01217451 -0.02799525 10.35486515 -0.02137662 13.69839966 -0.00703418 C17.3105834 0.00410175 20.92270214 -0.00787557 24.53488159 -0.01687622 C31.6041718 -0.0307925 38.6732831 -0.02326469 45.74256475 -0.00820064 C53.97774399 0.00867849 62.2128789 0.00544683 70.4480701 0.00170528 C85.1426165 -0.00417025 99.83707715 0.00998671 114.53160095 0.03465271 C128.78586541 0.05857696 143.04001533 0.06565487 157.29429626 0.05516052 C172.82313256 0.04374827 188.3519159 0.04182472 203.88075155 0.05625862 C205.53691987 0.05778443 207.19308819 0.05930479 208.84925652 0.06081963 C210.07150414 0.06195635 210.07150414 0.06195635 211.31844364 0.06311603 C217.05703097 0.06785614 222.79559463 0.06600939 228.53418159 0.06175423 C235.5280378 0.0568249 242.52178577 0.0628239 249.5156172 0.08264852 C253.08308639 0.09251212 256.65039086 0.09763577 260.2178688 0.08975601 C264.08618696 0.08138663 267.95421638 0.09629489 271.82250977 0.11352539 C272.94838361 0.10751535 274.07425746 0.1015053 275.2342487 0.09531313 C281.21224369 0.14382238 285.59888534 0.54720992 290.84776306 3.50120544 C295.70513011 8.62113287 297.39347581 12.92906103 297.21885681 19.90354919 C296.49780237 24.95093027 294.22894814 28.51527728 290.34188467 31.75712055 C284.27700919 36.08928183 278.98591958 36.20618681 271.69552612 36.12939453 C270.48489819 36.13648892 269.27427025 36.14358331 268.02695662 36.15089267 C264.6831696 36.16540658 261.34080795 36.15761786 257.99712646 36.14016974 C254.38492726 36.12676563 250.77283351 36.14224361 247.16064453 36.1539917 C240.09132165 36.17234953 233.02227557 36.16386876 225.95296138 36.14590348 C220.20710132 36.1318663 214.46131631 36.12798707 208.71544075 36.13134575 C207.8970388 36.13182319 207.07863686 36.13230063 206.23543485 36.13279254 C204.57277522 36.13381889 202.91011561 36.13487425 201.24745602 36.13595831 C186.55289042 36.14452147 171.85845829 36.12786227 157.16392517 36.09812927 C142.90963638 36.06928752 128.65553983 36.06221131 114.40122986 36.07762146 C98.87238181 36.09438655 83.343625 36.09841511 67.81477457 36.0809111 C66.15860626 36.07906674 64.50243794 36.07723201 62.84626961 36.07540703 C62.03143785 36.07449494 61.2166061 36.07358285 60.37708248 36.07264312 C54.6384875 36.06704004 48.89993709 36.07034272 43.16134453 36.07695198 C36.16745691 36.08468735 29.17375845 36.07792517 22.17990892 36.05277694 C18.61239729 36.04028711 15.04518008 36.0341289 11.47765732 36.0453186 C7.60926213 36.05722284 3.74137412 36.03809104 -0.12698364 36.01586914 C-1.81579441 36.02823029 -1.81579441 36.02823029 -3.53872257 36.04084116 C-9.97077648 35.97252072 -13.92401611 35.33990521 -19.15223694 31.50120544 C-23.96198993 26.30147248 -25.69951129 22.12926481 -25.52333069 15.10276794 C-24.91199575 10.81698824 -23.28580065 7.49114749 -20.15223694 4.50120544 C-13.3518222 0.28751239 -7.89585317 -0.06749449 0 0 Z " fill="#3F4E5C" transform="translate(306.15223693847656,428.49879455566406)"/>
<path d="M0 0 C3.10942532 0.48064783 6.00600197 0.62923372 9.14868164 0.6328125 C10.78450195 0.63474609 10.78450195 0.63474609 12.45336914 0.63671875 C14.13946289 0.63091797 14.13946289 0.63091797 15.85961914 0.625 C16.99141602 0.62886719 18.12321289 0.63273437 19.28930664 0.63671875 C20.37727539 0.63542969 21.46524414 0.63414062 22.58618164 0.6328125 C23.57440918 0.63168457 24.56263672 0.63055664 25.58081055 0.62939453 C27.97378895 0.51271757 29.93576445 0.11757572 32.23461914 -0.5 C48.52781316 -1.0992899 60.12560415 4.56492901 72.23461914 15.5 C72.88043945 16.07621094 73.52625977 16.65242188 74.19165039 17.24609375 C82.79861597 25.3655188 89.00036753 35.3750899 89.54711914 47.3125 C89.44555645 54.15782502 86.92007416 58.88309694 82.42211914 63.9375 C65.02670473 80.01452511 37.57271914 87.47000529 14.24243164 86.72265625 C-9.32607347 84.9779747 -34.48636655 79.18379182 -51.29272461 61.3046875 C-55.65323049 55.96104369 -57.47224069 50.99574796 -57.14428711 44.06640625 C-55.66016293 34.01414251 -49.34722021 23.1807191 -41.76538086 16.5 C-41.10538086 16.5 -40.44538086 16.5 -39.76538086 16.5 C-39.76538086 15.84 -39.76538086 15.18 -39.76538086 14.5 C-37.67614498 12.77201528 -35.59983118 11.18626179 -33.39038086 9.625 C-32.75495361 9.17390869 -32.11952637 8.72281738 -31.46484375 8.25805664 C-21.95948411 1.68442441 -11.6589346 -2.10801607 0 0 Z " fill="#FDFEFE" transform="translate(746.765380859375,318.5)"/>
<path d="M0 0 C0.88067491 -0.00523668 1.76134982 -0.01047336 2.66871184 -0.01586872 C5.61957516 -0.0308699 8.5702651 -0.0315739 11.52116394 -0.03224182 C13.63697604 -0.03986321 15.75278537 -0.04829067 17.86859131 -0.0574646 C23.61658829 -0.07941816 29.36453206 -0.08820964 35.11256623 -0.09329104 C38.70390279 -0.09693352 42.29522539 -0.103173 45.88655663 -0.11029243 C58.41613248 -0.13478964 70.94566692 -0.14783948 83.4752655 -0.15138245 C95.15360245 -0.15501819 106.83167666 -0.18491588 118.50993329 -0.22678703 C128.53726154 -0.26147832 138.56450266 -0.27693069 148.59189051 -0.27762848 C154.58038076 -0.27842167 160.56860339 -0.28717989 166.55703163 -0.31562614 C172.19025965 -0.34178665 177.82299778 -0.34402291 183.45625877 -0.3279705 C185.52182457 -0.32615445 187.58741841 -0.33286079 189.65292358 -0.34878922 C192.47712127 -0.36923775 195.29960293 -0.35870508 198.1237793 -0.34057617 C198.9375108 -0.35377614 199.7512423 -0.36697611 200.58963233 -0.38057607 C206.5515173 -0.29340893 210.64812662 1.4702774 215.25236511 5.27415466 C219.3803707 10.56646951 220.80250877 14.562402 220.25236511 21.27415466 C218.4357603 26.56600345 216.00699305 30.1836465 211.25236511 33.27415466 C210.71888112 33.63215464 210.18539713 33.99015461 209.63574696 34.35900307 C206.02968459 35.7436296 202.42783369 35.5558991 198.61825562 35.5415802 C197.73772957 35.54611131 196.85720352 35.55064243 195.94999486 35.55531085 C192.99368437 35.56799097 190.03755725 35.56633214 187.08122253 35.56468201 C184.96393598 35.57066502 182.84665161 35.57747004 180.72937012 35.58503723 C174.97311057 35.60272813 169.21691046 35.60739393 163.46062636 35.6086688 C158.65693956 35.6105666 153.85326663 35.61792282 149.04958516 35.62501299 C137.71637381 35.64130653 126.38319425 35.64618109 115.04997253 35.64476013 C103.35633681 35.64355864 91.66288565 35.66465983 79.96929663 35.69624746 C69.93266276 35.72239381 59.89608922 35.7331281 49.85942155 35.73184931 C43.86372636 35.73133917 37.8681951 35.73705127 31.8725338 35.75820541 C26.23280508 35.77755985 20.59339714 35.77773121 14.95365715 35.76317215 C12.88445315 35.76107945 10.81522921 35.76581231 8.74605942 35.77789307 C5.91947058 35.79332619 3.09399045 35.78405 0.26742554 35.76863098 C-0.95856416 35.78406167 -0.95856416 35.78406167 -2.20932132 35.79980409 C-8.51824808 35.72384108 -12.75061224 34.02254539 -17.48982239 29.67649841 C-21.39224576 24.6302613 -22.38818322 20.59811367 -21.74763489 14.27415466 C-19.86549357 8.42961058 -17.17399033 4.08590974 -11.63029957 1.15457058 C-7.74990934 -0.03056807 -4.01796882 -0.01182771 0 0 Z " fill="#41505D" transform="translate(302.7476348876953,333.72584533691406)"/>
<path d="M0 0 C0.66 0 1.32 0 2 0 C3.3440093 1.99284138 4.67541292 3.99419671 6 6 C7.6453291 7.68773449 9.31532988 9.35153339 11 11 C23.27106614 23.34809463 34.08146725 36.09962976 34.5 54.25 C34.41457497 80.25053129 9.87472104 98.28623224 -7.01953125 115.1875 C-8.85038779 117.02157584 -10.68117163 118.85572425 -12.5118866 120.68994141 C-16.32671476 124.5107217 -20.14354528 128.32948699 -23.96166992 132.14697266 C-28.36356143 136.54826043 -32.75980742 140.95513305 -37.15352899 145.36457539 C-41.40727957 149.63299639 -45.666562 153.89585255 -49.92795372 158.15664673 C-51.73046201 159.96033326 -53.53135314 161.76563742 -55.33057594 163.57260132 C-57.84041544 166.09223959 -60.35651288 168.60546188 -62.87426758 171.1171875 C-63.9801548 172.23150398 -63.9801548 172.23150398 -65.10838318 173.36833191 C-71.03065609 179.25464135 -75.78497628 183.39826649 -84.25 184.375 C-89.96214202 183.8037858 -93.75103508 181.44995937 -97.6171875 177.23828125 C-100.81453232 172.78548182 -101.55751695 168.91466295 -101.56640625 163.4921875 C-99.90980742 156.20315264 -93.22981086 150.9719996 -88.13232422 145.93701172 C-86.75902157 144.56819189 -85.38571918 143.19937179 -84.01242661 141.83054185 C-82.54356621 140.3683999 -81.07224417 138.90877728 -79.60018539 137.4498558 C-76.52734166 134.4041583 -73.46223175 131.35075587 -70.39822388 128.2961731 C-63.89639603 121.81649616 -57.38613045 115.34532707 -50.875 108.875 C-43.83795382 101.88201895 -36.80238808 94.88758585 -29.77652752 87.88336384 C-26.73076543 84.84756039 -23.68019507 81.81669866 -20.62584281 78.7895391 C-19.18518323 77.36020625 -17.74682805 75.92860224 -16.30947876 74.49594116 C-14.55774751 72.7499505 -12.80241223 71.0075654 -11.04284668 69.26947021 C-10.27177582 68.49854034 -9.50070496 67.72761047 -8.70626831 66.93331909 C-8.03486753 66.26635954 -7.36346676 65.59939999 -6.6717205 64.91222954 C-4.15221015 62.03023933 -3.13272894 59.60331337 -2.3125 55.875 C-3.40955481 49.69160015 -7.64696428 46.31279193 -12 42 C-12.78503906 41.20207031 -13.57007813 40.40414062 -14.37890625 39.58203125 C-16.23675503 37.70424134 -18.10916047 35.84447016 -20 34 C-19.14700232 32.85329616 -18.29250133 31.70771066 -17.4375 30.5625 C-16.88964844 29.82515625 -16.34179688 29.0878125 -15.77734375 28.328125 C-14.63618826 26.83333671 -13.46367882 25.36169381 -12.25390625 23.921875 C-6.53560055 17.04462539 -1.84134084 8.84271821 0 0 Z " fill="#41515E" transform="translate(824,554)"/>
<path d="M0 0 C0.72126751 -0.00297112 1.44253501 -0.00594224 2.18565911 -0.0090034 C4.60296643 -0.01767629 7.02022414 -0.01919745 9.43754578 -0.02069092 C11.17059942 -0.02532007 12.90365205 -0.03034486 14.63670349 -0.03573608 C19.34546376 -0.04885222 24.05420978 -0.05530344 28.76298547 -0.05974674 C31.70520421 -0.06267856 34.64741906 -0.06678357 37.58963585 -0.07125092 C46.79629445 -0.08492339 56.00294415 -0.09459143 65.20961219 -0.09845281 C75.83538335 -0.10293394 86.4610259 -0.12048549 97.08675796 -0.1494534 C105.3017447 -0.1710714 113.51669525 -0.18115714 121.73171014 -0.18249393 C126.63750827 -0.18354181 131.54318546 -0.18944623 136.44895363 -0.20731354 C141.06431524 -0.22379636 145.67946502 -0.22594869 150.29484558 -0.21717453 C151.98671219 -0.21640429 153.6785902 -0.22074521 155.37042809 -0.23063278 C157.68454061 -0.24336164 159.99790389 -0.23747089 162.31201172 -0.22705078 C164.25242828 -0.22925062 164.25242828 -0.22925062 166.23204517 -0.2314949 C171.08810415 0.26820877 175.06522227 1.57917898 178.80741882 4.85919189 C179.50737976 5.74091064 179.50737976 5.74091064 180.22148132 6.64044189 C180.94464539 7.52216064 180.94464539 7.52216064 181.68241882 8.42169189 C184.6705756 12.83373546 184.40546798 18.03192499 183.84648132 23.14044189 C182.16472904 27.98461965 179.13491048 31.38359458 174.84648132 34.14044189 C170.29088717 35.97272588 166.46058095 36.39149987 161.56634521 36.39440918 C160.85561952 36.39752916 160.14489382 36.40064914 159.41263098 36.40386367 C157.04292061 36.41180928 154.67346876 36.40553353 152.30375671 36.39923096 C150.59996389 36.40194237 148.89617225 36.40550415 147.19238281 36.40985107 C142.57255143 36.41896012 137.9528095 36.41543675 133.33297658 36.4090929 C128.49424962 36.40402442 123.65553024 36.4087268 118.81680298 36.41186523 C110.69036995 36.41550275 102.56397328 36.41071177 94.43754578 36.40118408 C85.04901083 36.39030361 75.66056277 36.39382302 66.27202994 36.40483689 C58.20561673 36.41392024 50.13922964 36.4151898 42.07281297 36.40995955 C37.25762441 36.40684515 32.44247665 36.40641589 27.62729073 36.41303253 C23.09892789 36.41882046 18.57067678 36.4147826 14.04232597 36.40324402 C12.38271647 36.40060502 10.72309753 36.40134952 9.06349182 36.40576935 C6.79340235 36.41125643 4.52366809 36.40435261 2.25360107 36.39440918 C0.9847107 36.39365513 -0.28417967 36.39290108 -1.59152126 36.39212418 C-7.79231167 35.95399105 -12.76050575 34.6521849 -17.15351868 30.14044189 C-20.85168603 24.81073013 -22.28994857 19.57634586 -21.15351868 13.14044189 C-19.22892136 7.745082 -15.75302588 4.39842616 -11.15351868 1.14044189 C-7.50466248 -0.16788199 -3.84265895 0.00884394 0 0 Z " fill="#404F5D" transform="translate(302.1535186767578,521.8595581054688)"/>
<path d="M0 0 C7.28499595 5.0261593 13.63956085 11.26681597 19.87915039 17.50854492 C21.31833605 18.94331815 22.77287217 20.36124676 24.22851562 21.77929688 C33.54108647 31.05319961 38.8420017 39.52820334 39.375 52.75 C38.99372626 70.53529853 27.57444106 80.89113629 15.61816406 92.45703125 C10.95657347 96.90199995 6.07501549 101.03514415 1 105 C0.79246094 104.45472656 0.58492187 103.90945313 0.37109375 103.34765625 C-3.26292216 94.45268008 -8.89474091 87.78969668 -15.8125 81.21484375 C-17.7416407 79.26158879 -19.51486721 77.25830645 -21.30078125 75.17578125 C-24.70508451 71.25563337 -28.35135123 67.74139845 -32.1875 64.25 C-36.95126618 59.86967553 -41.61028808 55.41940295 -46.13671875 50.79296875 C-47.00723877 49.90512695 -47.87775879 49.01728516 -48.7746582 48.10253906 C-50.46558398 46.36954255 -52.14821425 44.62839947 -53.82104492 42.87792969 C-59.71135791 36.85343141 -65.90174547 31.69941818 -74 29 C-72.54515049 25.54664669 -70.70865015 23.61140631 -67.875 21.1875 C-67.06933594 20.49140625 -66.26367188 19.7953125 -65.43359375 19.078125 C-64.63050781 18.39234375 -63.82742188 17.7065625 -63 17 C-61.64438502 15.81415362 -60.29013349 14.62674608 -58.9375 13.4375 C-57.95716797 12.58865234 -57.95716797 12.58865234 -56.95703125 11.72265625 C-55.64251686 10.56556874 -54.34817258 9.3851932 -53.07421875 8.18359375 C-38.94181164 -4.9292409 -17.50190751 -8.57233261 0 0 Z " fill="#42515E" transform="translate(823,444)"/>
<path d="M0 0 C10.99111356 5.80241528 18.52196022 14.07704171 22.875 25.875 C25.90233623 37.62708165 25.19870868 51.4287134 19.42578125 62.109375 C11.66357637 75.0173112 1.95929876 81.83250562 -12.4375 86 C-27.22316074 87.76019771 -38.3991349 83.47681748 -50.3125 75 C-59.77245273 65.75504619 -64.86755317 53.1712772 -65.4375 40.0625 C-65.15946505 26.82803641 -59.2490545 14.5352421 -49.80859375 5.4609375 C-34.97125054 -6.14722575 -16.92985647 -7.91608002 0 0 Z " fill="#FDFEFE" transform="translate(783.0625,220.6875)"/>
<path d="M0 0 C1.17142044 -0.00700928 2.34284088 -0.01401855 3.54975891 -0.02124023 C7.41687821 -0.03882646 11.28326405 -0.02719428 15.15039062 -0.01367188 C17.84029735 -0.01456294 20.53019106 -0.02024287 23.22009277 -0.02526855 C28.85563076 -0.03253663 34.49095877 -0.02297955 40.12646484 -0.00390625 C46.6329403 0.01786115 53.13891432 0.01080917 59.64537764 -0.01121187 C65.24134331 -0.02939005 70.83715842 -0.03191248 76.43314409 -0.0214572 C79.77121375 -0.01523533 83.10885931 -0.01593067 86.44694519 -0.02760315 C90.1694019 -0.03776313 93.8908962 -0.02227316 97.61328125 0 C98.71372269 -0.00809692 99.81416412 -0.01619385 100.94795227 -0.02453613 C107.04617299 0.0430519 110.69529106 0.39192789 115.30664062 4.51757812 C118.95232451 9.31453061 119.9642668 13.0030648 119.68945312 19.02148438 C118.82161522 24.68014175 116.73478896 28.3572076 112.30664062 31.95507812 C108.25407212 34.06579089 105.08687727 34.64170033 100.54484558 34.65802002 C99.59024948 34.66373016 98.63565338 34.66944031 97.65213013 34.67532349 C96.09122147 34.67700027 96.09122147 34.67700027 94.4987793 34.67871094 C92.84690865 34.68615829 92.84690865 34.68615829 91.16166687 34.6937561 C87.5159747 34.70836956 83.87032603 34.71517827 80.22460938 34.72070312 C77.69118753 34.72645507 75.15776569 34.7322128 72.62434387 34.73797607 C67.98973993 34.7471408 63.35514903 34.75344217 58.72053832 34.75647283 C51.91005003 34.76095147 45.09976265 34.77849381 38.28933543 34.80747342 C32.38081635 34.83173809 26.47234703 34.83941923 20.56377602 34.84114838 C18.05478128 34.84417428 15.54578737 34.85220068 13.03682518 34.86533356 C9.52529078 34.88240278 6.01424469 34.88051138 2.50268555 34.87402344 C0.95088593 34.88784561 0.95088593 34.88784561 -0.63226318 34.90194702 C-7.04150889 34.86488367 -12.29894003 34.36050142 -17.40039062 30.08789062 C-21.95892202 24.12797325 -23.1850476 20.35055139 -22.22851562 12.95117188 C-21.08588527 7.75512288 -18.09677042 4.19309785 -13.66532898 1.35023499 C-9.360445 -0.46748633 -4.59612766 -0.03381779 0 0 Z " fill="#3F4E5C" transform="translate(304.693359375,629.482421875)"/>
<path d="M0 0 C2 3 2 3 3.1965332 5.74511719 C5.5041059 9.9098064 8.45174644 12.78998668 11.85546875 16.078125 C12.51710526 16.73077332 13.17874176 17.38342163 13.86042786 18.05584717 C15.96238463 20.12790742 18.07401373 22.1897059 20.1875 24.25 C22.31074466 26.32548545 24.43168434 28.40313492 26.54670715 30.48699951 C27.86043872 31.78089863 29.17908306 33.06983166 30.50297546 34.35333252 C32.03986263 35.86464353 33.52551484 37.4277479 35 39 C35 39.66 35 40.32 35 41 C28.07801267 44.7052991 21.02959851 47.9449277 13.75 50.875 C13.00637207 51.1851001 12.26274414 51.4952002 11.49658203 51.81469727 C5.82504118 54.04491583 0.55541809 55.31294851 -5.390625 53.1171875 C-9.65463448 50.26854251 -12.79355636 47.78062789 -15 43 C-15.91127357 38.06393482 -15.16799547 33.95064415 -13.2578125 29.3515625 C-12.89655273 28.48015625 -12.53529297 27.60875 -12.16308594 26.7109375 C-10.28202972 22.32654451 -8.34670216 17.96931709 -6.375 13.625 C-5.98054688 12.74972656 -5.58609375 11.87445312 -5.1796875 10.97265625 C-3.51188209 7.28207333 -1.83065246 3.61321065 0 0 Z " fill="#404F5D" transform="translate(448,809)"/>
<path d="M0 0 C0.66 0.33 1.32 0.66 2 1 C-0.92177549 5.78642617 -4.1793636 9.25705881 -8.34765625 12.9765625 C-15.02545769 19.07550516 -21.48130088 25.3742472 -27.87109375 31.7734375 C-28.34094318 32.24366585 -28.81079262 32.7138942 -29.29487991 33.19837189 C-32.18723687 36.09414952 -35.07577462 38.99371137 -37.96313477 41.89447021 C-40.45593751 44.39769575 -42.95174715 46.89791985 -45.44726562 49.3984375 C-50.30103652 54.26277843 -55.15160436 59.13030154 -60 64 C-60 60.32289164 -58.8427333 59.49439292 -56.34146118 56.97930908 C-55.80226044 56.45246521 -55.26305969 55.92562134 -54.70751953 55.3828125 C-54.14502502 54.82148621 -53.58253052 54.26015991 -53.00299072 53.68182373 C-51.13646197 51.8224997 -49.2596467 49.97391609 -47.3828125 48.125 C-46.08650628 46.83682755 -44.79093237 45.54791778 -43.49606323 44.25830078 C-40.08042357 40.85980788 -36.65632376 37.46997271 -33.22998047 34.08227539 C-27.75019918 28.661601 -22.2829471 23.2282975 -16.81631088 17.79437256 C-14.90344679 15.89548354 -12.98682304 14.00045448 -11.0696106 12.10595703 C-9.89674712 10.94311769 -8.7239625 9.7801988 -7.55126953 8.6171875 C-7.01611725 8.09034363 -6.48096497 7.56349976 -5.92959595 7.02069092 C-3.66395899 4.76872254 -1.7800664 2.6700996 0 0 Z " fill="#105BB9" transform="translate(572,623)"/>
<path d="M0 0 C0 3 0 3 -2.046875 5.3046875 C-2.93890625 6.15289063 -3.8309375 7.00109375 -4.75 7.875 C-8.12088936 11.09804334 -11.0926701 14.35987999 -14 18 C-15.21705849 19.14037391 -16.46468843 20.2496462 -17.75 21.3125 C-18.36359375 21.82425781 -18.9771875 22.33601562 -19.609375 22.86328125 C-20.06828125 23.23839844 -20.5271875 23.61351562 -21 24 C-21.66 23.67 -22.32 23.34 -23 23 C-15.41 15.41 -7.82 7.82 0 0 Z " fill="#1C2E42" transform="translate(778,658)"/>
<path d="M0 0 C0 3 0 3 -1.7578125 5.015625 C-2.53898438 5.75296875 -3.32015625 6.4903125 -4.125 7.25 C-7.57153135 10.56126716 -10.69679285 13.90394748 -13.61328125 17.6875 C-15.32096468 19.30378629 -16.71157245 19.60964989 -19 20 C-13.17371096 12.84198775 -6.5617015 6.47408234 0 0 Z " fill="#182B3F" transform="translate(745,691)"/>
<path d="M0 0 C-1.50649351 3.76623377 -1.50649351 3.76623377 -3.78125 4.84375 C-6.64457057 6.33590297 -8.50485569 8.31382204 -10.75 10.625 C-11.54921875 11.44226563 -12.3484375 12.25953125 -13.171875 13.1015625 C-13.77515625 13.72804688 -14.3784375 14.35453125 -15 15 C-15.66 14.67 -16.32 14.34 -17 14 C-15.06555623 12.03856399 -13.12763179 10.08079606 -11.1875 8.125 C-10.64029297 7.56941406 -10.09308594 7.01382812 -9.52929688 6.44140625 C-8.99755859 5.90644531 -8.46582031 5.37148438 -7.91796875 4.8203125 C-7.18743286 4.08192139 -7.18743286 4.08192139 -6.44213867 3.32861328 C-2.82910695 0 -2.82910695 0 0 0 Z " fill="#105EBA" transform="translate(721,478)"/>
<path d="M0 0 C0.33 0.66 0.66 1.32 1 2 C-0.07826365 3.27513763 -1.16285519 4.54492569 -2.25 5.8125 C-2.85328125 6.52019531 -3.4565625 7.22789062 -4.078125 7.95703125 C-5.92370398 9.91889671 -7.79945332 11.45669625 -10 13 C-10.66 12.67 -11.32 12.34 -12 12 C-8.04 8.04 -4.08 4.08 0 0 Z " fill="#233648" transform="translate(799,637)"/>
<path d="M0 0 C0.66 0.33 1.32 0.66 2 1 C0.90653119 2.34212062 -0.2001575 3.67347975 -1.3125 5 C-2.23482422 6.11375 -2.23482422 6.11375 -3.17578125 7.25 C-5 9 -5 9 -8 9 C-6.85459775 7.68712379 -5.70866567 6.37470979 -4.5625 5.0625 C-3.92441406 4.33160156 -3.28632812 3.60070312 -2.62890625 2.84765625 C-1.77458541 1.87860647 -0.91348825 0.91348825 0 0 Z " fill="#22B16C" transform="translate(674,197)"/>
<path d="M0 0 C0.99 0.33 1.98 0.66 3 1 C-0.3 3.97 -3.6 6.94 -7 10 C-7.66 9.67 -8.32 9.34 -9 9 C-6.03 6.03 -3.06 3.06 0 0 Z " fill="#223548" transform="translate(764,672)"/>
<path d="M0 0 C0.66 0.33 1.32 0.66 2 1 C0.625 3.5 0.625 3.5 -1 6 C-1.66 6 -2.32 6 -3 6 C-3.33 6.66 -3.66 7.32 -4 8 C-4 4 -4 4 -2 1.75 C-1.01 0.88375 -1.01 0.88375 0 0 Z " fill="#2E72C0" transform="translate(655,540)"/>
<path d="M0 0 C-1.49097658 3.7952131 -3.75700849 5.61042731 -7 8 C-7.66 7.67 -8.32 7.34 -9 7 C-7.88121617 5.82737096 -6.75476949 4.66204862 -5.625 3.5 C-4.68527344 2.52546875 -4.68527344 2.52546875 -3.7265625 1.53125 C-2 0 -2 0 0 0 Z " fill="#27384A" transform="translate(735,703)"/>
<path d="M0 0 C1.06546953 3.1964086 1.07427838 5.65747276 1 9 C0.01 9.33 -0.98 9.66 -2 10 C-2.6875 8.375 -2.6875 8.375 -3 6 C-1.5625 2.75 -1.5625 2.75 0 0 Z " fill="#266CBB" transform="translate(451,802)"/>
<path d="M0 0 C0.66 0.33 1.32 0.66 2 1 C-1.625 6.75 -1.625 6.75 -5 9 C-4.42647107 5.12867972 -2.51295648 2.91827204 0 0 Z " fill="#2066BC" transform="translate(572,623)"/>
<path d="M0 0 C0.33 0.66 0.66 1.32 1 2 C3.01669827 3.13350534 3.01669827 3.13350534 5 4 C4.67 5.98 4.34 7.96 4 10 C1.16625119 6.79663178 0.4794463 4.21912747 0 0 Z " fill="#14AE65" transform="translate(640,334)"/>
</svg>
